# xmcd
#
# Track frame offsets:
#	182
#	13197
#	24762
#	39982
#	51455
#	56982
#	67670
#	79690
#	90197
#	104105
#	118720
#	132182
#	142557
#	153970
#	168112
#	178545
#	192607
#	204432
#	217420
#	231645
#
# Disc length: 3249 seconds
#
# Revision: 5
# Processed by: cddbd v1.5.2PL0 Copyright (c) Steve Scherf et al.
# Submitted via: MusicManager 7.0.4.0 
#
DISCID=130caf14
DTITLE=Otis Redding - Definitive - Disc 3/3
DYEAR=1987
DGENRE=blues
TTITLE0=Knock On Wood (with Carla)
TTITLE1=(2)Lovey Dovey (with Carla)
TTITLE2=(3)New Year's Resolution (with Carla)
TTITLE3=(4)Ooh Carla, Ooh Otis (with Carla)
TTITLE4=(5)Radio Spot - Stay In School
TTITLE5=(6)You Left The Water Running
TTITLE6=(7)Happy Song (Dum Dum)
TTITLE7=(8)Hard To Handle
TTITLE8=(9)Amen
TTITLE9=(10)I've Got Dreams To Remember
TTITLE10=(11)Champagne And Wine
TTITLE11=(12)Direct Me
TTITLE12=(13)Merry Christmas, Baby
TTITLE13=(14)White Christmas
TTITLE14=(15)Love Man
TTITLE15=(16)Free Me
TTITLE16=(17)Look At The Girl
TTITLE17=(18)Match Game
TTITLE18=(19)Tell The Truth
TTITLE19=(20)Dock Of The Bay
EXTD=
EXTT0=
EXTT1=
EXTT2=
EXTT3=
EXTT4=
EXTT5=
EXTT6=
EXTT7=
EXTT8=
EXTT9=
EXTT10=
EXTT11=
EXTT12=
EXTT13=
EXTT14=
EXTT15=
EXTT16=
EXTT17=
EXTT18=
EXTT19=
PLAYORDER=
